<?xml version="1.0" standalone="no"?>
<!DOCTYPE svg PUBLIC "-//W3C//DTD SVG 20010904//EN"
 "http://www.w3.org/TR/2001/REC-SVG-20010904/DTD/svg10.dtd">
<svg version="1.0" xmlns="http://www.w3.org/2000/svg"
 width="583.000000pt" height="370.000000pt" viewBox="0 0 583.000000 370.000000"
 preserveAspectRatio="xMidYMid meet">
<metadata>
Created by potrace 1.16, written by Peter Selinger 2001-2019
</metadata>
<g transform="translate(0.000000,370.000000) scale(0.100000,-0.100000)"
fill="#eee" stroke="none">
<path d="M2580 2785 c-71 -16 -178 -53 -185 -65 -2 -4 1 -14 8 -23 11 -15 20
-14 102 15 81 28 102 31 210 32 137 1 208 -15 321 -70 224 -110 386 -353 411
-616 6 -64 7 -68 31 -68 25 0 25 0 18 74 -30 334 -271 629 -581 711 -87 23
-256 28 -335 10z"/>
<path d="M2052 2383 c-86 -168 -114 -318 -94 -497 42 -379 297 -653 670 -720
29 -5 32 -3 32 19 0 19 -6 26 -27 30 -261 53 -436 183 -549 407 -59 117 -78
204 -78 358 -1 160 20 247 88 376 41 76 42 82 25 92 -10 7 -21 12 -23 12 -2 0
-22 -35 -44 -77z"/>
<path d="M3169 1369 c-92 -73 -261 -149 -335 -149 -19 0 -24 -5 -24 -25 0 -19
5 -25 21 -25 76 0 273 81 342 142 30 26 38 39 35 60 l-3 26 -36 -29z"/>
</g>
</svg>
