<svg width="507" height="506" viewBox="0 0 507 506" fill="none" xmlns="http://www.w3.org/2000/svg">
<path d="M389.758 52.1392L389.475 52.5529L389.89 52.8346C454 96.4216 496.087 169.812 496.087 253H496.587V253.5L506 253.5H506.5V253C506.5 211.844 496.408 171.312 477.103 134.933C457.797 98.5532 429.864 67.4293 395.735 44.2705L395.322 43.9906L395.041 44.4023L389.758 52.1392ZM17.2249 310.597L17.1061 310.112L16.6206 310.23L7.53276 312.449L7.04631 312.567L7.16576 313.054C15.0772 345.261 29.275 375.6 48.9486 402.337C68.6221 429.075 93.3861 451.688 121.826 468.886C150.267 486.083 181.827 497.528 214.704 502.567C247.582 507.606 281.133 506.141 313.442 498.255L313.929 498.136L313.809 497.65L311.584 488.591L311.465 488.106L310.98 488.224C292.461 492.729 273.11 495.117 253.199 495.117C138.965 495.117 43.1509 416.508 17.2249 310.597ZM492.937 295.1L492.444 295.012L492.357 295.504C480.911 359.935 443.902 415.567 392.147 451.612L391.736 451.898L392.023 452.309L397.396 459.988L397.681 460.396L398.091 460.112C425.375 441.144 448.645 417.006 466.571 389.074C484.497 361.142 496.729 329.964 502.568 297.32L502.656 296.827L502.163 296.739L492.937 295.1ZM375.651 31.9644L375.211 31.7235C335.952 10.2126 291.672 -0.534392 246.887 0.578426L246.387 0.590848L246.399 1.09077L246.634 10.4694L246.646 10.9689L247.146 10.9567C249.158 10.9077 251.175 10.883 253.199 10.883C295.626 10.883 335.51 21.7261 370.218 40.7835L370.655 41.0237L370.896 40.5867L375.409 32.4034L375.651 31.9644ZM184.764 20.6259L185.245 20.4854L185.104 20.0047L182.47 11.0625L182.329 10.5837L181.85 10.7239C134.008 24.724 91.3752 52.4878 59.2935 90.5364C27.2118 128.585 7.10852 175.226 1.50319 224.615L1.44676 225.112L1.94397 225.168L11.2753 226.22L11.7724 226.276L11.8282 225.779C22.8163 127.878 92.3719 47.6188 184.764 20.6259Z" fill="black" stroke="black"/>
</svg>
