<?xml version="1.0" standalone="no"?>
<!DOCTYPE svg PUBLIC "-//W3C//DTD SVG 20010904//EN"
 "http://www.w3.org/TR/2001/REC-SVG-20010904/DTD/svg10.dtd">
<svg version="1.0" xmlns="http://www.w3.org/2000/svg"
 width="614.000000pt" height="370.000000pt" viewBox="0 0 614.000000 370.000000"
 preserveAspectRatio="xMidYMid meet">
<metadata>
Created by potrace 1.16, written by Peter Selinger 2001-2019
</metadata>
<g transform="translate(0.000000,370.000000) scale(0.100000,-0.100000)"
fill="#000000" stroke="none">
<path d="M2641 2430 c-85 -18 -182 -73 -248 -140 -190 -191 -190 -482 1 -672
194 -195 496 -197 688 -4 74 73 112 138 133 227 38 162 -5 324 -117 441 -62
64 -111 97 -193 127 -67 25 -195 35 -264 21z m191 -51 c78 -17 160 -62 217
-119 63 -63 96 -118 115 -195 54 -205 -43 -409 -240 -502 -244 -116 -541 23
-608 284 -80 310 200 599 516 532z"/>
</g>
</svg>
