<svg width="622" height="622" viewBox="0 0 622 622" fill="none" xmlns="http://www.w3.org/2000/svg">
<path d="M610.298 320.854C612.136 266.779 599.348 211.547 570.306 161.239C522.115 77.761 439.805 26.2671 351.164 14.2041L352.715 2.74185C429.045 13.0744 498.825 51.3681 548.542 110.207C598.259 169.046 624.374 244.243 621.831 321.235L610.298 320.854Z" fill="black"/>
<path d="M553.787 486.346C529.79 519.614 498.534 548.46 460.711 570.3C405.791 602.011 345.002 614.345 286.258 609.422L285.304 620.936C338.7 625.364 392.334 615.92 441.007 593.52C489.681 571.12 531.742 536.523 563.114 493.084L553.787 486.346Z" fill="black"/>
<path d="M148.837 45.561C195.772 16.8775 249.473 1.15601 304.465 0L304.707 11.5229C255.87 12.5056 206.584 25.4785 161.291 51.6315C159.13 52.8788 156.992 54.149 154.874 55.4416L148.837 45.561Z" fill="black"/>
<path d="M49.3133 165.349L39.234 159.741C-0.868881 231.826 -10.6968 316.891 11.9123 396.223C34.5214 475.555 87.7155 542.655 159.793 582.762L165.401 572.682C119.561 547.231 79.8181 509.408 51.6951 460.692C-2.86455 366.182 -0.0566711 254.29 49.3133 165.349Z" fill="black"/>
</svg>
