<?xml version="1.0" standalone="no"?>
<!DOCTYPE svg PUBLIC "-//W3C//DTD SVG 20010904//EN"
 "http://www.w3.org/TR/2001/REC-SVG-20010904/DTD/svg10.dtd">
<svg version="1.0" xmlns="http://www.w3.org/2000/svg"
 width="614.000000pt" height="360.000000pt" viewBox="0 0 614.000000 360.000000"
 preserveAspectRatio="xMidYMid meet">
<metadata>
Created by potrace 1.16, written by Peter Selinger 2001-2019
</metadata>
<g transform="translate(0.000000,360.000000) scale(0.100000,-0.100000)"
fill="#000000" stroke="none">
<path d="M2830 2977 c0 -21 7 -25 68 -36 138 -25 275 -83 391 -165 67 -46 81
-49 81 -16 0 55 -257 187 -440 226 -91 19 -100 18 -100 -9z"/>
<path d="M2206 2875 c-205 -117 -357 -281 -461 -497 -186 -390 -139 -856 122
-1199 58 -77 164 -179 185 -179 34 0 18 36 -43 95 -154 152 -259 342 -305 556
-28 125 -25 354 4 474 54 216 136 368 281 519 82 84 169 151 261 200 54 29 57
33 46 54 l-12 22 -78 -45z"/>
<path d="M3532 1218 c-45 -65 -168 -182 -250 -239 -133 -92 -277 -147 -452
-172 -87 -12 -95 -15 -98 -36 -4 -24 -3 -24 73 -17 174 16 362 84 508 185 82
57 214 183 257 247 28 40 29 42 11 58 -18 17 -20 15 -49 -26z"/>
</g>
</svg>
