<svg width="752" height="752" viewBox="0 0 752 752" fill="none" xmlns="http://www.w3.org/2000/svg">
<path d="M738.001 376C738.001 251.62 675.272 141.891 579.724 76.7235L587.582 65.1795C638.244 99.6657 679.708 146.013 708.364 200.186C737.021 254.358 752.001 314.715 752.001 376H738.001Z" fill="black"/>
<path d="M673.501 582.303C608.128 676.398 499.258 738 376.001 738C299.331 738 228.228 714.165 169.698 673.5L161.738 684.978C202.314 713.115 248.034 732.985 296.289 743.453C344.544 753.921 394.388 754.782 442.975 745.987C491.562 737.192 537.942 718.913 579.465 692.194C620.988 665.474 656.842 630.838 684.979 590.263L673.501 582.303Z" fill="black"/>
<path d="M366.631 0.116784C433.111 -1.54032 498.84 14.4633 557.117 46.4956L550.405 58.7055C498.677 30.2118 439.232 14 376.001 14C372.985 14 369.978 14.037 366.98 14.1103L366.631 0.116784Z" fill="black"/>
<path d="M190.023 65.3623L182.859 53.3976C97.3 104.622 35.5936 187.737 11.315 284.457C-12.9636 381.178 2.17437 483.582 53.3987 569.142L65.3634 561.978C32.7512 507.624 14.0011 444.001 14.0011 376C14.0011 244.074 84.572 128.631 190.023 65.3623Z" fill="black"/>
</svg>
